<svg xmlns="http://www.w3.org/2000/svg" xmlns:xlink="http://www.w3.org/1999/xlink" width="40" zoomAndPan="magnify" viewBox="0 0 30 30.000001" height="40" preserveAspectRatio="xMidYMid meet" version="1.0"><defs><clipPath id="2c885c8f2f"><path d="M 3.824219 2.902344 L 26.324219 2.902344 L 26.324219 25.402344 L 3.824219 25.402344 Z M 3.824219 2.902344 " clip-rule="nonzero"/></clipPath></defs><g clip-path="url(#2c885c8f2f)"><path fill="#000000" d="M 15.859375 2.902344 C 15.535156 2.902344 15.222656 3.039062 15 3.277344 L 8.714844 9.75 L 8.714844 18.554688 L 15 25.027344 C 15.222656 25.265625 15.535156 25.402344 15.859375 25.402344 C 16.503906 25.402344 17.027344 24.878906 17.027344 24.234375 L 17.027344 4.074219 C 17.027344 3.429688 16.503906 2.902344 15.859375 2.902344 Z M 22.261719 7.023438 L 21.710938 7.832031 C 23.878906 9.105469 25.34375 11.460938 25.34375 14.152344 C 25.34375 16.847656 23.878906 19.203125 21.710938 20.476562 L 22.261719 21.285156 C 24.6875 19.832031 26.324219 17.183594 26.324219 14.152344 C 26.324219 11.121094 24.6875 8.476562 22.261719 7.023438 Z M 20.613281 9.445312 L 20.058594 10.261719 C 21.453125 11 22.410156 12.464844 22.410156 14.152344 C 22.410156 15.839844 21.453125 17.304688 20.058594 18.046875 L 20.613281 18.859375 C 22.265625 17.9375 23.386719 16.175781 23.386719 14.152344 C 23.386719 12.128906 22.265625 10.367188 20.613281 9.445312 Z M 5.289062 9.75 C 4.480469 9.75 3.824219 10.410156 3.824219 11.21875 L 3.824219 17.089844 C 3.824219 17.894531 4.480469 18.554688 5.289062 18.554688 L 7.734375 18.554688 L 7.734375 9.75 Z M 18.949219 11.898438 L 18.375 12.738281 C 19.007812 12.902344 19.476562 13.472656 19.476562 14.152344 C 19.476562 14.835938 19.007812 15.402344 18.375 15.566406 L 18.949219 16.410156 C 19.832031 16.039062 20.453125 15.167969 20.453125 14.152344 C 20.453125 13.136719 19.832031 12.265625 18.949219 11.898438 Z M 18.949219 11.898438 " fill-opacity="1" fill-rule="nonzero"/></g></svg>