<svg xmlns="http://www.w3.org/2000/svg" xmlns:xlink="http://www.w3.org/1999/xlink" width="40" zoomAndPan="magnify" viewBox="0 0 30 30.000001" height="40" preserveAspectRatio="xMidYMid meet" version="1.0"><defs><clipPath id="036ea54e9d"><path d="M 3.824219 3.339844 L 26.324219 3.339844 L 26.324219 25.839844 L 3.824219 25.839844 Z M 3.824219 3.339844 " clip-rule="nonzero"/></clipPath><clipPath id="fcfca4e7ae"><path d="M 20 6 L 26.324219 6 L 26.324219 23 L 20 23 Z M 20 6 " clip-rule="nonzero"/></clipPath><clipPath id="59b8a78a02"><path d="M 3.824219 10 L 16 10 L 16 25 L 3.824219 25 Z M 3.824219 10 " clip-rule="nonzero"/></clipPath></defs><g clip-path="url(#036ea54e9d)"><path fill="#000000" d="M 26.144531 25.035156 L 4.671875 3.5625 C 4.492188 3.382812 4.226562 3.382812 4.046875 3.5625 C 3.867188 3.742188 3.867188 4.007812 4.046875 4.1875 L 25.515625 25.660156 C 25.605469 25.75 25.742188 25.792969 25.832031 25.792969 C 25.921875 25.792969 26.054688 25.75 26.144531 25.660156 C 26.324219 25.480469 26.324219 25.210938 26.144531 25.035156 Z M 26.144531 25.035156 " fill-opacity="1" fill-rule="nonzero"/></g><path fill="#000000" d="M 19.210938 9.691406 C 21 10.675781 22.164062 12.554688 22.164062 14.609375 C 22.164062 16.578125 21.132812 18.414062 19.433594 19.398438 L 20.105469 20.066406 C 21.9375 18.90625 23.101562 16.847656 23.101562 14.609375 C 23.101562 12.242188 21.804688 10.046875 19.703125 8.929688 C 19.480469 8.796875 19.210938 8.886719 19.074219 9.109375 C 18.941406 9.332031 19.03125 9.601562 19.210938 9.691406 Z M 19.210938 9.691406 " fill-opacity="1" fill-rule="nonzero"/><path fill="#000000" d="M 17.421875 16.667969 C 17.199219 16.714844 17.109375 16.890625 17.109375 17.117188 L 17.554688 17.5625 C 17.601562 17.5625 17.644531 17.5625 17.644531 17.5625 C 18.988281 17.207031 19.925781 15.996094 19.925781 14.609375 C 19.925781 13.222656 18.988281 12.015625 17.644531 11.660156 C 17.421875 11.613281 17.152344 11.75 17.109375 11.972656 C 17.0625 12.195312 17.199219 12.464844 17.421875 12.507812 C 18.359375 12.730469 19.03125 13.582031 19.03125 14.566406 C 19.03125 15.550781 18.359375 16.445312 17.421875 16.667969 Z M 17.421875 16.667969 " fill-opacity="1" fill-rule="nonzero"/><g clip-path="url(#fcfca4e7ae)"><path fill="#000000" d="M 20.820312 7.320312 C 23.59375 8.707031 25.292969 11.523438 25.292969 14.609375 C 25.292969 17.429688 23.863281 20.023438 21.492188 21.5 L 22.117188 22.125 C 24.667969 20.472656 26.1875 17.652344 26.1875 14.566406 C 26.1875 11.121094 24.265625 8.035156 21.222656 6.46875 C 21 6.378906 20.730469 6.425781 20.640625 6.648438 C 20.550781 6.960938 20.640625 7.230469 20.820312 7.320312 Z M 20.820312 7.320312 " fill-opacity="1" fill-rule="nonzero"/></g><path fill="#000000" d="M 9.996094 10.003906 L 14.066406 5.933594 C 14.289062 5.753906 14.46875 5.664062 14.648438 5.664062 C 15.003906 5.664062 15.003906 6.113281 15.003906 6.246094 L 15.003906 15.011719 L 15.898438 15.910156 L 15.898438 6.246094 C 15.898438 5.21875 15.230469 4.769531 14.648438 4.769531 C 14.246094 4.769531 13.84375 4.949219 13.484375 5.308594 L 9.414062 9.378906 Z M 9.996094 10.003906 " fill-opacity="1" fill-rule="nonzero"/><g clip-path="url(#59b8a78a02)"><path fill="#000000" d="M 15.003906 16.265625 L 15.003906 22.796875 C 15.003906 23.246094 14.871094 23.558594 14.648438 23.558594 C 14.511719 23.558594 14.289062 23.421875 14.109375 23.246094 L 8.429688 17.609375 C 8.386719 17.5625 8.296875 17.382812 8.296875 17.207031 L 8.296875 12.015625 C 8.296875 11.835938 8.386719 11.660156 8.429688 11.570312 L 9.371094 10.628906 L 8.742188 10.003906 L 8.207031 10.585938 L 5.164062 10.585938 C 4.402344 10.585938 3.824219 11.167969 3.824219 11.925781 L 3.824219 17.296875 C 3.824219 18.054688 4.402344 18.636719 5.164062 18.636719 L 8.207031 18.636719 L 13.441406 23.871094 C 13.933594 24.363281 14.335938 24.453125 14.648438 24.453125 C 15.40625 24.453125 15.898438 23.78125 15.898438 22.796875 L 15.898438 17.160156 Z M 7.492188 17.742188 L 5.164062 17.742188 C 4.894531 17.742188 4.71875 17.5625 4.71875 17.296875 L 4.71875 11.925781 C 4.71875 11.660156 4.894531 11.480469 5.164062 11.480469 L 7.492188 11.480469 C 7.445312 11.660156 7.402344 11.882812 7.402344 12.015625 L 7.402344 17.160156 C 7.402344 17.339844 7.445312 17.5625 7.492188 17.742188 Z M 7.492188 17.742188 " fill-opacity="1" fill-rule="nonzero"/></g></svg>